<svg width="25" height="25" viewBox="0 0 25 25" fill="none" xmlns="http://www.w3.org/2000/svg">
<path d="M22.9167 12.5L19.7917 15.625L16.6667 12.5" stroke="#484B4D" stroke-linecap="square"/>
<path d="M2.08333 12.5L5.20833 9.375L8.33333 12.5" stroke="#484B4D" stroke-linecap="square"/>
<path d="M19.8083 14.5833V12.5521C19.8086 11.2168 19.4448 9.90681 18.7561 8.76289C18.0674 7.61897 17.0799 6.68446 15.8997 6.05989C14.7196 5.43531 13.3914 5.14431 12.0583 5.21819C10.7251 5.29207 9.43725 5.72802 8.33333 6.47916" stroke="#484B4D" stroke-linecap="square"/>
<path d="M16.6833 18.5885C15.5794 19.3397 14.2916 19.7756 12.9584 19.8495C11.6252 19.9234 10.2971 19.6324 9.11695 19.0078C7.9368 18.3832 6.94926 17.4487 6.26056 16.3048C5.57186 15.1609 5.20808 13.8509 5.20833 12.5156V10.4167" stroke="#484B4D" stroke-linecap="square"/>
<path d="M5.20833 10.4167V9.375" stroke="#484B4D" stroke-linecap="round"/>
<path d="M19.7917 15.625V14.5833" stroke="#484B4D" stroke-linecap="round"/>
</svg>
